<?xml version="1.0" standalone="no"?>
<!DOCTYPE svg PUBLIC "-//W3C//DTD SVG 20010904//EN"
 "http://www.w3.org/TR/2001/REC-SVG-20010904/DTD/svg10.dtd">
<svg version="1.0" xmlns="http://www.w3.org/2000/svg"
 width="700.000000pt" height="700.000000pt" viewBox="0 0 700.000000 700.000000"
 preserveAspectRatio="xMidYMid meet">
<metadata>
Created by potrace 1.11, written by Peter Selinger 2001-2013
</metadata>
<g transform="translate(0.000000,700.000000) scale(0.100000,-0.100000)"
fill="#000000" stroke="none">
<path d="M1824 6959 c-40 -8 -85 -33 -108 -60 -31 -37 -43 -79 -55 -189 -15
-133 -20 -164 -29 -171 -4 -3 -34 -13 -67 -23 -78 -24 -215 -82 -288 -123
l-59 -33 -85 68 c-161 127 -191 143 -263 135 -59 -8 -89 -31 -273 -215 -188
-188 -211 -221 -208 -296 2 -53 16 -81 81 -164 27 -34 53 -67 57 -73 5 -5 23
-29 41 -52 l32 -41 -29 -59 c-51 -102 -62 -129 -96 -235 -25 -80 -37 -103 -51
-104 -11 -1 -41 -4 -69 -8 -27 -4 -72 -9 -100 -12 -112 -11 -140 -19 -184 -51
-65 -50 -71 -77 -71 -363 0 -140 4 -271 10 -290 5 -19 23 -50 40 -68 45 -50
76 -60 237 -77 24 -3 64 -8 90 -11 27 -4 56 -6 65 -6 12 0 23 -18 39 -66 25
-77 36 -105 91 -219 l39 -82 -94 -118 c-52 -65 -102 -132 -111 -150 -22 -44
-21 -130 3 -168 31 -51 374 -387 410 -402 45 -19 113 -19 151 1 30 15 86 57
210 159 l58 47 94 -46 c51 -26 135 -62 186 -80 52 -18 95 -34 97 -36 2 -2 7
-30 10 -61 4 -32 8 -66 10 -75 1 -9 6 -46 9 -82 10 -102 25 -145 63 -183 54
-56 78 -60 368 -60 256 -1 262 0 303 23 23 13 53 40 66 59 30 44 34 63 51 236
4 39 9 77 10 85 2 8 4 23 4 33 1 10 7 19 14 21 112 34 224 76 297 112 50 24
93 44 96 44 2 0 55 -41 117 -90 61 -50 127 -97 146 -106 41 -20 108 -20 153
-1 40 17 398 374 415 414 17 38 16 107 -1 148 -8 19 -52 81 -97 137 -45 57
-86 108 -90 114 -6 7 12 55 45 125 30 63 67 153 82 202 26 78 31 87 54 88 14
0 32 2 40 3 8 2 47 6 85 10 39 5 84 9 101 11 64 7 121 43 159 100 19 28 20 47
20 305 0 151 -3 287 -7 302 -5 14 -26 44 -49 66 -48 47 -71 53 -304 78 -33 4
-62 8 -63 9 -2 2 -19 49 -38 104 -18 55 -54 142 -79 193 -25 50 -45 92 -45 94
0 1 28 38 63 82 34 43 73 94 87 111 51 65 63 145 33 209 -10 20 -99 118 -199
218 -196 195 -226 215 -309 207 -45 -4 -86 -29 -195 -116 -41 -33 -81 -64 -87
-69 -9 -7 -45 6 -115 41 -86 42 -260 112 -278 111 -17 0 -37 12 -37 23 -1 12
-8 80 -18 172 -13 111 -26 146 -68 186 -50 48 -76 52 -338 54 -135 0 -259 -2
-275 -6z m401 -1324 c223 -45 421 -197 518 -398 86 -176 102 -334 53 -532 -46
-192 -213 -384 -410 -474 -189 -87 -434 -82 -626 11 -206 100 -363 306 -406
532 -10 51 -11 208 -2 256 36 201 158 385 328 495 100 66 169 91 315 119 28 5
194 -1 230 -9z"/>
<path d="M5269 4836 c-2 -2 -47 -6 -99 -10 -195 -14 -222 -20 -266 -58 -62
-55 -72 -85 -73 -236 -1 -69 -4 -84 -18 -89 -44 -14 -194 -90 -251 -125 -34
-22 -69 -37 -77 -34 -9 3 -43 24 -76 46 -77 53 -136 80 -175 80 -52 0 -127
-49 -190 -125 -32 -38 -83 -99 -112 -134 -63 -74 -82 -114 -82 -172 0 -58 20
-93 105 -184 41 -44 75 -85 75 -92 0 -6 -9 -33 -21 -60 -12 -26 -34 -97 -49
-158 l-28 -110 -63 -12 c-181 -36 -226 -60 -264 -140 -14 -30 -16 -53 -11
-137 3 -56 8 -114 11 -131 2 -16 6 -61 10 -98 6 -72 19 -107 54 -144 47 -50
91 -61 257 -62 l81 -1 28 -66 c15 -36 49 -101 75 -143 l46 -78 -70 -107 c-58
-91 -70 -117 -74 -160 -6 -73 23 -128 100 -191 34 -27 99 -82 145 -121 94 -80
144 -101 211 -86 51 12 60 18 129 81 135 126 117 115 153 96 38 -20 195 -71
246 -81 37 -7 40 -12 65 -149 18 -96 41 -148 81 -177 62 -47 85 -50 258 -33
30 2 89 7 130 11 83 7 132 23 169 57 40 37 54 84 58 202 2 61 6 116 8 123 3 7
22 20 42 28 86 36 146 66 208 103 l65 40 92 -62 c115 -75 169 -92 236 -72 50
15 80 42 172 155 25 30 57 69 73 85 78 85 103 161 78 238 -11 33 -24 49 -132
162 l-48 50 19 38 c20 41 60 161 81 242 7 28 13 51 14 52 1 2 48 12 106 24
113 23 143 35 176 71 42 44 55 94 49 177 -4 42 -9 103 -11 136 -14 184 -19
205 -64 252 -48 51 -85 61 -233 63 -59 2 -88 6 -88 14 0 13 -100 216 -131 266
l-22 35 46 67 c89 130 105 186 72 265 -15 34 -26 48 -91 103 -237 201 -233
198 -298 207 -32 3 -56 -1 -87 -15 -43 -19 -58 -32 -146 -115 l-42 -40 -78 31
c-67 27 -210 70 -250 76 -17 3 -23 10 -27 32 -36 180 -43 202 -80 242 -33 37
-76 55 -137 58 -31 2 -58 2 -60 0z m171 -1101 c338 -79 545 -443 439 -774 -66
-206 -255 -372 -467 -411 -295 -53 -590 121 -687 405 -111 328 94 697 431 779
78 19 204 19 284 1z"/>
<path d="M2638 2799 c-103 -27 -150 -106 -157 -260 -1 -10 -26 -23 -73 -38
-40 -13 -98 -36 -128 -50 -31 -15 -63 -30 -72 -34 -11 -4 -38 11 -79 43 -88
72 -154 84 -231 44 -50 -26 -198 -174 -219 -219 -37 -79 -22 -143 54 -240 l45
-57 -33 -67 c-18 -36 -42 -96 -54 -132 l-22 -66 -76 -7 c-107 -10 -153 -33
-198 -101 -18 -27 -20 -47 -20 -192 l0 -161 31 -39 c40 -50 71 -64 178 -83
l89 -15 22 -65 c12 -36 34 -88 49 -117 30 -61 30 -58 14 -75 -102 -107 -132
-180 -109 -266 14 -49 171 -220 228 -247 80 -38 141 -25 239 50 l68 53 66 -33
c36 -18 93 -43 128 -55 58 -21 62 -25 62 -54 2 -152 50 -241 144 -268 68 -20
282 -16 325 7 76 39 98 83 116 231 l6 51 59 16 c31 9 93 32 135 52 64 29 81
33 94 23 9 -7 37 -30 63 -51 76 -63 157 -79 226 -43 32 17 191 170 216 208 21
32 28 120 13 158 -12 27 -29 52 -79 117 -33 42 -33 41 -8 73 11 14 20 29 20
34 0 5 11 32 24 60 13 28 29 70 36 92 l12 41 74 7 c40 4 88 13 106 21 36 15
78 56 98 95 16 31 23 270 10 321 -20 73 -85 122 -179 134 -63 8 -93 13 -96 17
-1 2 -14 39 -29 83 -16 44 -39 102 -52 128 l-25 48 47 57 c50 61 62 86 70 144
9 59 -23 113 -127 219 -78 78 -103 98 -140 107 -75 19 -117 7 -206 -60 l-51
-39 -69 34 c-37 19 -97 45 -133 58 -36 12 -66 23 -67 24 -2 1 -8 37 -14 80 -6
44 -17 92 -25 107 -20 38 -63 76 -102 89 -36 12 -257 18 -294 8z m236 -889
c125 -26 257 -130 320 -249 106 -205 64 -443 -107 -597 -52 -47 -151 -101
-203 -110 -15 -3 -31 -7 -36 -10 -15 -10 -155 -5 -204 7 -131 31 -263 137
-323 257 -25 50 -33 72 -48 132 -9 35 -5 168 7 210 52 191 204 332 395 365 74
13 119 11 199 -5z"/>
</g>
</svg>
